<svg xmlns="http://www.w3.org/2000/svg" viewBox="0 0 1000 1000"><defs><style>.cls-1{fill:#fff;}.cls-2{fill:none;}</style></defs><title>Ресурс 5</title><g id="Слой_2" data-name="Слой 2"><g id="Слой_1-2" data-name="Слой 1"><path class="cls-1" d="M214.66,833.2q-20.28,0-30.89-11.3t-10.6-32a49.18,49.18,0,0,1,3.25-18.41,39.57,39.57,0,0,1,8.89-13.68,37.11,37.11,0,0,1,13.44-8.45,48.49,48.49,0,0,1,16.93-2.87,54.26,54.26,0,0,1,9.6.79,62.51,62.51,0,0,1,7.55,1.8,37.31,37.31,0,0,1,5.4,2.1l1.6.82a2,2,0,0,1,.95,2.47L236.7,765.8A2,2,0,0,1,234,767a48.12,48.12,0,0,0-7-2.51A42.57,42.57,0,0,0,215.43,763a25.89,25.89,0,0,0-8.47,1.43,19.13,19.13,0,0,0-7.32,4.62,23,23,0,0,0-5.1,8.22,34.25,34.25,0,0,0-1.93,12.24,43.7,43.7,0,0,0,1.25,10.74,22.78,22.78,0,0,0,4.08,8.58,19.47,19.47,0,0,0,7.37,5.7,26.1,26.1,0,0,0,11,2.11,50.31,50.31,0,0,0,7.32-.48,52.08,52.08,0,0,0,5.76-1.13,30.24,30.24,0,0,0,4.44-1.5l1.47-.65a2,2,0,0,1,2.74,1.2L242,825.37a2,2,0,0,1-1,2.45,49.81,49.81,0,0,1-9.64,3.47A65.07,65.07,0,0,1,214.66,833.2Z"/><path class="cls-1" d="M327.12,831.59a2,2,0,0,1-1.92-1.4c-.79-2.44-1.63-5-2.53-7.51l-2.7-7.74a2,2,0,0,0-1.91-1.36h-29.6a2,2,0,0,0-1.91,1.36q-1.35,3.87-2.69,7.75t-2.51,7.48a2,2,0,0,1-1.93,1.4h-15.1a2,2,0,0,1-1.91-2.7q4.18-11.9,8-22.14,4.23-11.38,8.26-21.47t8-19.14q3.66-8.45,7.58-16.55a2,2,0,0,1,1.83-1.14h15.18a2,2,0,0,1,1.84,1.16q3.81,8.08,7.52,16.55,4,9.06,8,19.14t8.25,21.49q3.78,10.25,7.95,22.14a2,2,0,0,1-1.91,2.7Zm-22-59.45a2,2,0,0,0-3.78,0v0q-1.22,3.12-2.76,7.21t-3.45,9q-1.41,3.65-2.87,7.56a2,2,0,0,0,1.9,2.74h18a2,2,0,0,0,1.91-2.71q-1.41-3.94-2.74-7.63-1.78-4.92-3.39-9t-2.82-7.2Z"/><path class="cls-1" d="M420.62,748.49h14.67a2,2,0,0,1,2,2l-.05,79.1a2,2,0,0,1-2,2H420.57a2,2,0,0,1-2-2l0-31.23a2,2,0,0,0-2-2H389.15a2,2,0,0,0-2,2l0,31.23a2,2,0,0,1-2,2H370.41a2,2,0,0,1-2-2l.05-79.11a2,2,0,0,1,2-2h14.67a2,2,0,0,1,2,2l0,27.75a2,2,0,0,0,2,2h27.39a2,2,0,0,0,2-2l0-27.75A2,2,0,0,1,420.62,748.49Z"/><path class="cls-1" d="M525.72,831.71a2,2,0,0,1-1.92-1.39c-.79-2.45-1.64-5-2.53-7.51l-2.7-7.75a2,2,0,0,0-1.91-1.35l-29.6,0a2,2,0,0,0-1.92,1.36q-1.33,3.87-2.69,7.76c-.88,2.55-1.72,5.05-2.5,7.48a2,2,0,0,1-1.93,1.39h-15.1A2,2,0,0,1,461,829q4.19-11.9,8-22.13,4.23-11.4,8.26-21.48t8-19.13q3.66-8.46,7.58-16.55a2,2,0,0,1,1.83-1.15h15.18a2,2,0,0,1,1.84,1.16q3.81,8.1,7.52,16.55,4,9.06,8,19.14t8.24,21.49q3.79,10.25,8,22.14a2,2,0,0,1-1.91,2.7Zm-22-59.45a2,2,0,0,0-3.78,0l0,0c-.8,2.07-1.72,4.48-2.75,7.2s-2.18,5.72-3.45,9q-1.41,3.65-2.87,7.56a2,2,0,0,0,1.9,2.74h18a2,2,0,0,0,1.91-2.7q-1.41-4-2.74-7.63-1.79-4.93-3.39-9l-2.82-7.21Z"/><path class="cls-1" d="M592,747.63q18.6,0,28.56,6.56t9.94,21.43q0,15-10.09,21.65t-28.8,6.64h-3.85a2,2,0,0,0-2,2l0,23.78a2,2,0,0,1-2,2H569a2,2,0,0,1-2-2l0-78.24a2,2,0,0,1,1.66-2,107.86,107.86,0,0,1,11.3-1.36Q586.83,747.63,592,747.63Zm1.19,16q-2,0-4,.12l-1.53.1a2,2,0,0,0-1.89,2v20.09a2,2,0,0,0,2,2h3.86q9.72,0,14.64-2.63t4.92-9.83a11.7,11.7,0,0,0-1.25-5.76,9.6,9.6,0,0,0-3.6-3.67,16.21,16.21,0,0,0-5.7-1.92A48.23,48.23,0,0,0,593.18,763.59Z"/><path class="cls-1" d="M656.26,829.77l0-79.11a2,2,0,0,1,2-2h14.54a2,2,0,0,1,2,2l0,40.42a2,2,0,0,0,3.7,1.15q2.67-3.91,5.55-8,4.92-7,9.91-13.55t9.78-12.3q4.45-5.32,8.18-9.11a2,2,0,0,1,1.44-.6H725.8a2,2,0,0,1,2,2l-.05,79.1a2,2,0,0,1-2,2H711.33a2,2,0,0,1-2-2l0-46.86a2,2,0,0,0-3.6-1.29q-8.58,10.46-16.33,22-9,13.42-16.84,27.17a2,2,0,0,1-1.76,1H658.29A2,2,0,0,1,656.26,829.77Z"/><path class="cls-1" d="M827.43,750.77l0,79.1a2,2,0,0,1-2,2H810.69a2,2,0,0,1-2-2l0-63.26a2,2,0,0,0-2-2l-26.9,0a2,2,0,0,0-2,2l0,63.26a2,2,0,0,1-2,2H761a2,2,0,0,1-2-2l0-79.1a2,2,0,0,1,2-2l64.34,0A2,2,0,0,1,827.43,750.77Z"/><path class="cls-1" d="M357.23,901.62v6.3a1.47,1.47,0,0,1-1.47,1.47h-.3a1.47,1.47,0,0,1-1.48-1.47v-9.25a1.48,1.48,0,0,1,1.48-1.48h1a1.48,1.48,0,0,0,1.08-.46,18.39,18.39,0,0,0,3.53-5.59,38,38,0,0,0,2.15-7.52,59.26,59.26,0,0,0,.87-8.38q.15-4.35.15-8.65v-1.1h16.53a1.47,1.47,0,0,1,1.47,1.48v28.75a1.47,1.47,0,0,0,1.48,1.47h.3a1.47,1.47,0,0,1,1.47,1.48v9.25a1.47,1.47,0,0,1-1.47,1.47h-.3a1.47,1.47,0,0,1-1.48-1.47v-6.3a1.47,1.47,0,0,0-1.47-1.48H358.71A1.48,1.48,0,0,0,357.23,901.62Zm10.35-33.18v.4q0,3.51-.17,7.35a66.87,66.87,0,0,1-.8,7.63,39.68,39.68,0,0,1-1.9,7.22,22.54,22.54,0,0,1-1.89,3.92,1.46,1.46,0,0,0,1.25,2.23h13.29a1.47,1.47,0,0,0,1.47-1.47v-25.8a1.47,1.47,0,0,0-1.47-1.48Z"/><path class="cls-1" d="M428.38,882.79a21.78,21.78,0,0,1-1.3,7.85,16.3,16.3,0,0,1-3.52,5.68,14.5,14.5,0,0,1-5.18,3.42,17.56,17.56,0,0,1-12.5,0,14.55,14.55,0,0,1-5.17-3.42,16.46,16.46,0,0,1-3.53-5.68,24.26,24.26,0,0,1,0-15.67,16.42,16.42,0,0,1,3.53-5.65,14.58,14.58,0,0,1,5.17-3.43,17.56,17.56,0,0,1,12.5,0,14.53,14.53,0,0,1,5.18,3.43,16.25,16.25,0,0,1,3.52,5.65A21.62,21.62,0,0,1,428.38,882.79Zm-3.6,0a20.28,20.28,0,0,0-.9-6.27,13.84,13.84,0,0,0-2.55-4.73,10.84,10.84,0,0,0-4-3,13.77,13.77,0,0,0-10.45,0,10.87,10.87,0,0,0-4,3,13.84,13.84,0,0,0-2.55,4.73,22.33,22.33,0,0,0,0,12.55,13.79,13.79,0,0,0,2.55,4.72,11.18,11.18,0,0,0,4,3,13.53,13.53,0,0,0,10.45,0,11.15,11.15,0,0,0,4-3,13.79,13.79,0,0,0,2.55-4.72A20.3,20.3,0,0,0,424.78,882.79Z"/><path class="cls-1" d="M451.68,868.44v1q0,5.5-.37,10.6a44.82,44.82,0,0,1-1.78,9.75,23.44,23.44,0,0,1-1.62,4.05,13.61,13.61,0,0,1-2.38,3.35,11.18,11.18,0,0,1-3.27,2.35,10,10,0,0,1-2.81.85,1.48,1.48,0,0,1-1.69-1.28V899a1.49,1.49,0,0,1,1.14-1.61,8.29,8.29,0,0,0,1.72-.59,8.15,8.15,0,0,0,2.35-1.68,11,11,0,0,0,1.8-2.52,22.75,22.75,0,0,0,1.42-3.43,41.34,41.34,0,0,0,1.73-9.15c.28-3.4.42-7.21.42-11.45V867a1.48,1.48,0,0,1,1.48-1.48h15.1a1.47,1.47,0,0,1,1.47,1.48v31.7a1.47,1.47,0,0,1-1.47,1.47h-.45a1.47,1.47,0,0,1-1.48-1.47V869.92a1.47,1.47,0,0,0-1.47-1.48Z"/><path class="cls-1" d="M489.53,878.94a32.71,32.71,0,0,1,6.6.6,14.25,14.25,0,0,1,4.88,1.88,8.6,8.6,0,0,1,3,3.32,10.64,10.64,0,0,1,1.05,4.9c0,3.64-1.26,6.34-3.8,8.13s-6.25,2.67-11.15,2.67c-1.4,0-2.91-.07-4.52-.22a27,27,0,0,1-3.06-.45,1.47,1.47,0,0,1-1.17-1.44V867a1.48,1.48,0,0,1,1.48-1.48h17.65A1.47,1.47,0,0,1,502,867h0a1.47,1.47,0,0,1-1.47,1.47H486.26a1.48,1.48,0,0,0-1.48,1.48v7.55a1.47,1.47,0,0,0,1.48,1.47Zm-4.75,4.38v12.49a1.48,1.48,0,0,0,1.33,1.47l.95.09c.88.08,2,.12,3.22.12a24.8,24.8,0,0,0,4.3-.35,10.38,10.38,0,0,0,3.58-1.25,6.66,6.66,0,0,0,3.37-6.2,7.82,7.82,0,0,0-.87-3.92,6.22,6.22,0,0,0-2.5-2.4,11.43,11.43,0,0,0-3.93-1.2,36.45,36.45,0,0,0-5.15-.33h-2.82A1.48,1.48,0,0,0,484.78,883.32Z"/><path class="cls-1" d="M549.08,882.79a21.78,21.78,0,0,1-1.3,7.85,16.3,16.3,0,0,1-3.52,5.68,14.5,14.5,0,0,1-5.18,3.42,17.56,17.56,0,0,1-12.5,0,14.55,14.55,0,0,1-5.17-3.42,16.31,16.31,0,0,1-3.53-5.68,24.26,24.26,0,0,1,0-15.67,16.27,16.27,0,0,1,3.53-5.65,14.58,14.58,0,0,1,5.17-3.43,17.56,17.56,0,0,1,12.5,0,14.53,14.53,0,0,1,5.18,3.43,16.25,16.25,0,0,1,3.52,5.65A21.62,21.62,0,0,1,549.08,882.79Zm-3.6,0a20.28,20.28,0,0,0-.9-6.27,13.84,13.84,0,0,0-2.55-4.73,10.84,10.84,0,0,0-4-3,13.77,13.77,0,0,0-10.45,0,10.87,10.87,0,0,0-4,3,13.84,13.84,0,0,0-2.55,4.73,22.33,22.33,0,0,0,0,12.55,13.79,13.79,0,0,0,2.55,4.72,11.18,11.18,0,0,0,4,3,13.53,13.53,0,0,0,10.45,0,11.15,11.15,0,0,0,4-3,13.79,13.79,0,0,0,2.55-4.72A20.3,20.3,0,0,0,545.48,882.79Z"/><path class="cls-1" d="M593.78,882.79a21.78,21.78,0,0,1-1.3,7.85,16.44,16.44,0,0,1-3.52,5.68,14.59,14.59,0,0,1-5.18,3.42,17.56,17.56,0,0,1-12.5,0,14.55,14.55,0,0,1-5.17-3.42,16.31,16.31,0,0,1-3.53-5.68,24.26,24.26,0,0,1,0-15.67,16.27,16.27,0,0,1,3.53-5.65,14.58,14.58,0,0,1,5.17-3.43,17.56,17.56,0,0,1,12.5,0,14.62,14.62,0,0,1,5.18,3.43,16.4,16.4,0,0,1,3.52,5.65A21.62,21.62,0,0,1,593.78,882.79Zm-3.6,0a20.28,20.28,0,0,0-.9-6.27,13.84,13.84,0,0,0-2.55-4.73,10.84,10.84,0,0,0-4-3,13.77,13.77,0,0,0-10.45,0,10.87,10.87,0,0,0-4,3,13.84,13.84,0,0,0-2.55,4.73,22.33,22.33,0,0,0,0,12.55,13.79,13.79,0,0,0,2.55,4.72,11.18,11.18,0,0,0,4,3,13.53,13.53,0,0,0,10.45,0,11.15,11.15,0,0,0,4-3,13.79,13.79,0,0,0,2.55-4.72A20.3,20.3,0,0,0,590.18,882.79Z"/><path class="cls-1" d="M616.13,865.19q7.35,0,11,2.8a9.49,9.49,0,0,1,3.6,8,11.06,11.06,0,0,1-1,5,8.57,8.57,0,0,1-3,3.35,13.74,13.74,0,0,1-4.77,1.85,32.46,32.46,0,0,1-6.38.57h-3.22a1.48,1.48,0,0,0-1.48,1.48v10.45a1.47,1.47,0,0,1-1.47,1.47h-.45a1.47,1.47,0,0,1-1.48-1.47V867.31a1.47,1.47,0,0,1,1.17-1.45,27.07,27.07,0,0,1,3.06-.44C613.22,865.27,614.73,865.19,616.13,865.19Zm.15,2.95c-1.26,0-2.34,0-3.22.13l-.95.09a1.47,1.47,0,0,0-1.33,1.47v12.49a1.47,1.47,0,0,0,1.48,1.47h2.82a35.73,35.73,0,0,0,5-.32,11.25,11.25,0,0,0,3.8-1.2,6.08,6.08,0,0,0,2.42-2.43,8.11,8.11,0,0,0,.85-4,7.2,7.2,0,0,0-.92-3.8,6.87,6.87,0,0,0-2.45-2.37,10.8,10.8,0,0,0-3.48-1.23A22.89,22.89,0,0,0,616.28,868.14Z"/><path class="cls-1" d="M798.83,402.37a30.14,30.14,0,0,1-15.17,7.43c-4.58.93-4.31,1.24-3.89,5.74a76.75,76.75,0,0,1-.33,14.29c-.14,1.49-1.78,2.83-2.73,4.24-.92-1.29-2.33-2.46-2.66-3.88a33.78,33.78,0,0,0-11.2-18c-2.41-2.09-5.69-3.25-8.72-4.48-.8-.34-2.4.34-3.09,1.08-.39.41.06,2.12.62,2.87,6.06,8.07,8.08,17.54,9.13,27.27.69,6.39-2.31,11.7-5.95,16.53-2.37,3.13-5.24,5.87-7.89,8.79l-1.44-.92,2-11.18c1.81-10,.82-19.49-3.8-28.72a22.94,22.94,0,0,0-10.92-10.66,36.46,36.46,0,0,0-5.85-2.22c-12.86-3.73-26.1-3.17-39.29-3.1-2.53,0-3.48,1.09-3,3.55.83,4.55-1.19,7.93-4.41,10.75-2.49,2.19-3.29,1.92-4.6-1.08a65,65,0,0,0-3.93-8,8.28,8.28,0,0,0-3.91-3.47c-2.2-.75-4.69-.61-7-.84.39,2.07.35,4.37,1.27,6.17,4,7.76,3.78,16.26,4.77,24.58.89,7.27,2.41,14.22,9.28,18.55,4.5,2.84,9,2.81,13.56.63,4-1.95,5.31-7.75,2.79-11.91-2.25-3.73-6-4.24-10.11-1.38-2.82,2-4.37,1.39-5.2-2.1-1-4.39.77-7.91,4-10.48,3.53-2.79,7.59-2.27,11.5-.63a32,32,0,0,1,3.63,2.2c.63-1.43,1.2-2.57,1.66-3.75,3.44-9.08,10.89-13.83,19.63-12.49,5.35.82,10.36,5.28,13.27,10.75a21.85,21.85,0,0,1,2.5,8c1.39,14-4.39,25.79-10.3,37.58-2.73,5.45-5.09,10.81-4.17,17.16,1.09,7.41,5.79,11.62,13.1,11.37,4.44-.16,6.6-1.73,7.4-5.36.87-4-1.06-8.44-4.45-10.09a6.78,6.78,0,0,1-1.33-.5c-.87-.65-2.45-1.54-2.35-2.07a4.67,4.67,0,0,1,2.07-3c4.1-2,8.17-3.56,12.8-.81,4.28,2.54,4.93,2.27,5.92-2.62,1.68-8.25,6.53-14,13.19-18.41a14.09,14.09,0,0,1,3.52-1.22,23.23,23.23,0,0,1-.41,3.56c-1.9,7.19-4.18,14.29-5.76,21.55-3,13.79-11.39,22.93-23.69,28.72-5.89,2.78-5.67,2.54-5.18,8.93.22,2.79-.92,5.81-2,8.51-.82,2.08-2.56,2.21-3.55-.09-3.24-7.59-8.78-13.35-14.51-19a20.52,20.52,0,0,1-6.31-12.57c-.4-3.16-.72-4.77-1.73-5.54s-2.67-.7-5.76-.46c-4.51.35-9,.45-12.17-4.45,2.54-1.29,4.84-2.45,7.14-3.64,11.56-5.94,19.36-15.23,23.77-27.5a53.63,53.63,0,0,0,2.9-9.26,28.76,28.76,0,0,0,.11-9.92c-.94-4.73-3.64-6.39-7.89-6-3.05.27-5.65,3.38-6.19,7.32s-1.23,7.81-1.68,11.73c-1.41,12.17-12.81,19.72-24.34,20.11-12.67.42-24.3-10.58-26.24-24.75-.62-4.52-1.27-9-2-13.53a12.13,12.13,0,0,0-.95-2.27c-1.49.94-2.76,1.77-4.06,2.57-5.2,3.23-11,2-14.26-3.18a26.51,26.51,0,0,1-2.86-5.77,4.35,4.35,0,0,1,.68-3.49c.46-.57,2-.38,3.09-.25s2.26.77,3.42.9c3.73.42,6.32-1.08,7.45-4.16a7.18,7.18,0,0,0-3.09-8.44c-5.26-3.39-10.59-2.41-16.07-.39a56.38,56.38,0,0,1-11.26,3.12c-10.92,1.55-19.39-4.15-27.63-10.25-1.6-1.18-1.35-2.4.3-3.35,7.1-4.08,13.93-9.47,22.33-9.65,5.61-.12,11.34,1.85,16.88,3.39s10.76,2.52,15.76-.61c3.42-2.13,4-4.91,2.46-8.06a7.43,7.43,0,0,0-8.26-4.18c-2,.37-4,.37-6,.54a38.86,38.86,0,0,1,1.16-6.42c2.71-7.53,9.45-9.91,16.33-5.93l4.1,2.35c.87-5.08,1.72-9.69,2.45-14.33,1.72-10.83,6.52-19.3,16.77-24.25,12.37-6,32.4,3,33.78,18.11.38,4.17,1.21,8.3,1.84,12.45.59,3.87,3.56,7,6.84,7.31s5.33-1.61,6.78-6.06c2.5-7.61-.39-14.6-3-21.27A49,49,0,0,0,693.37,314c-1.68-.82-2.93-2.5-4.38-3.78,1.64-1.2,3.15-3,5-3.43a16,16,0,0,1,7.21.17c3.38.84,4.78.82,5.37-1.34a12.1,12.1,0,0,0,.33-2.22,24.48,24.48,0,0,1,8.77-17.48,54.46,54.46,0,0,0,13.78-19c4.21,3.47,5.72,7.71,4,12.54-1.14,3.17.05,4.41,2.6,5.86,5.43,3.11,11,6.19,15.88,10,7.31,5.72,9.17,14.67,11.63,23,2,6.84,3.38,13.87,5.19,21.47a19.12,19.12,0,0,1-4.38-1.33c-5.74-3.31-9.29-8.46-11.41-14.69-.5-1.47-.88-3-1.37-4.47-.81-2.5-2.17-3.06-4.6-1.72-4.55,2.51-9.15,2-13.51-.61-.92-.54-2-1.74-2-2.63,0-.73,1.4-1.68,2.36-2.16,4.91-2.47,6.71-5.72,5.66-10.58A7,7,0,0,0,734.1,296c-5.05-1.31-11.75,2.26-13.77,7.19-3,7.24-.78,13.89,2.11,20.5,3.17,7.24,6.69,14.36,9.34,21.79,2.89,8.14,2.89,16.52-.69,24.28-.29.64-.61,1.27-1,1.89-3.3,6.05-8.68,10.18-15.92,9.76-7.82-.45-13.37-5-16.17-12.23-1.39-3.57-2.77-3.93-5.62-2.17-6.89,4.22-14.11-.83-15.14-8.38-.24-1.73.85-3.92,2-5.43.33-.46,2.73.79,4.21.95,2.48.26,5.74,1.3,7.28.14,1.76-1.32,2.79-4.74,2.72-7.2-.11-4.44-4.13-7.65-8.66-8-7.45-.52-14.33,4.68-16.27,12.88a88.93,88.93,0,0,0-2.29,15.28,53.27,53.27,0,0,1-5,19c-.53,1.2-.94,2.44-1.39,3.62,3.86,2.35,10.74-.65,13.2-5.69.78-1.61,1.21-3.39,1.95-5,1.74-3.79,3.4-4.05,6.48-1.38,3.29,2.86,3.8,6.5,3.19,10.49-.34,2.2.11,3.37,2.64,3.41,13.21.2,26.36-.06,39.27-3.48a31.54,31.54,0,0,0,6.36-2.41c9.65-4.94,14.53-14.3,15.34-25.52.51-6.94.46-14-2.11-20.66-.36-.94.09-2.21.16-3.32,1.06.34,2.42.36,3.12,1.07,5.45,5.45,11.24,11.15,11.07,19.42a76.25,76.25,0,0,1-3.49,19.63c-1.25,4.25-4.27,8-6.48,11.94a5.29,5.29,0,0,0-.76,2.82c16.7-1,21.39-14,26.31-27.85,1.2,1.77,2.26,2.86,2.75,4.16a23.57,23.57,0,0,1,.73,15.18c-1.52,5.24-1,6,4.28,6.8,5.59.87,10.85,2.5,15,6.72C801.42,398.7,801.45,399.9,798.83,402.37Z"/><path class="cls-1" d="M329.5,478.06,201.09,403,201,541.74a6.46,6.46,0,0,0,9.71,5.59Z"/><path class="cls-1" d="M329.6,320,201.09,395l.09-138.78a6.42,6.42,0,0,1,9.64-5.62Z"/><polygon class="cls-1" points="329.3 324.03 329.2 474.06 200.8 398.96 329.3 324.03"/><path class="cls-1" d="M329.54,316.13l-.39-150L210.43,235.85a6.46,6.46,0,0,0,0,11.16Z"/><path class="cls-1" d="M464.64,236.75,464.28,98a6.46,6.46,0,0,0-9.73-5.56L336,162.08Z"/><polygon class="cls-1" points="461.07 238.51 332.81 313.86 332.43 163.83 461.07 238.51"/><path class="cls-1" d="M329.44,481.72l-.57,150-118.64-69.9a6.46,6.46,0,0,1,0-11.16Z"/><path class="cls-1" d="M464.44,561.27,463.91,700a6.46,6.46,0,0,1-9.74,5.54L335.7,635.78Z"/><polygon class="cls-1" points="332.13 634.03 332.71 484 460.87 559.51 332.13 634.03"/><path class="cls-1" d="M722,247.38,602.88,316.3l.58-150L722,236.12A6.54,6.54,0,0,1,722,247.38Z"/><path class="cls-1" d="M596.63,162.25l-128.75,74.5L468.41,98a6.43,6.43,0,0,1,9.66-5.59Z"/><polygon class="cls-1" points="600.2 163.99 599.62 314.03 471.45 238.51 600.2 163.99"/><path class="cls-1" d="M602.79,481.89l.38,150L721.9,562.17a6.46,6.46,0,0,0,0-11.15Z"/><path class="cls-1" d="M467.68,561.27,468,700.05a6.47,6.47,0,0,0,9.74,5.55L596.33,636Z"/><polygon class="cls-1" points="599.9 634.2 599.51 484.16 471.25 559.52 599.9 634.2"/><rect class="cls-2" width="1000" height="1000"/></g></g></svg>